# xmcd
#
# Track frame offsets: 
#        150
#        27372
#        48837
#        75580
#        102820
#        119897
#        145137
#        163850
#        200757
#        211110
#        216312
#        248910
#        260815
#
# Disc length: 3877 seconds
#
# Revision: 1
# Processed by: cddbd v1.5.2PL0 Copyright (c) Steve Scherf et al.
# Submitted via: ExactAudioCopy v0.95b4
#
DISCID=c40f230d
DTITLE=Various Artist - Jazz and Dintorni vol.42 - Jazz and World Music
DYEAR=1900
DGENRE=Jazz
TTITLE0=Hermeto Pascoal - O galo do airan
TTITLE1=Hermeto Pascoal - Depois do baile
TTITLE2=George Gruntz - Nemeit
TTITLE3=Tony Scott - Djanger Bali
TTITLE4=Kim Duk Soo - Arirang
TTITLE5=Pedro Iturralde, Paco De Lucia - Cancion del fuego fatuo
TTITLE6=Maria Joao - Fado do coracao errante
TTITLE7=Mari Joao - Les douzilles
TTITLE8=John McLaughlin - The boy's theme 1
TTITLE9=John McLaughlin - Cows in the water
TTITLE10=Sun Ra - Love in outer space
TTITLE11=Charlie Haden, Carlos Paredes - Balada de Coimbra
TTITLE12=Charlie Haden, The Liberation Music Orchestra - Sandino
EXTD=
EXTT0=
EXTT1=
EXTT2=
EXTT3=
EXTT4=
EXTT5=
EXTT6=
EXTT7=
EXTT8=
EXTT9=
EXTT10=
EXTT11=
EXTT12=
PLAYORDER=
